<svg width="0" height="0" class="hidden" xmlns="http://www.w3.org/2000/svg">
  <symbol xmlns="http://www.w3.org/2000/svg" viewBox="0 0 24 24" id="instagram">
    <path d="M16.5 2.25H7.5C6.10807 2.25149 4.77358 2.80509 3.78933 3.78933C2.80509 4.77358 2.25149 6.10807 2.25 7.5V16.5C2.25149 17.8919 2.80509 19.2264 3.78933 20.2107C4.77358 21.1949 6.10807 21.7485 7.5 21.75H16.5C17.8919 21.7485 19.2264 21.1949 20.2107 20.2107C21.1949 19.2264 21.7485 17.8919 21.75 16.5V7.5C21.7485 6.10807 21.1949 4.77358 20.2107 3.78933C19.2264 2.80509 17.8919 2.25149 16.5 2.25ZM12 16.5C11.11 16.5 10.24 16.2361 9.49993 15.7416C8.75991 15.2471 8.18314 14.5443 7.84254 13.7221C7.50195 12.8998 7.41283 11.995 7.58647 11.1221C7.7601 10.2492 8.18868 9.44736 8.81802 8.81802C9.44736 8.18868 10.2492 7.7601 11.1221 7.58647C11.995 7.41283 12.8998 7.50195 13.7221 7.84254C14.5443 8.18314 15.2471 8.75991 15.7416 9.49993C16.2361 10.24 16.5 11.11 16.5 12C16.4988 13.1931 16.0243 14.337 15.1806 15.1806C14.337 16.0243 13.1931 16.4988 12 16.5ZM17.625 7.5C17.4025 7.5 17.185 7.43402 17 7.3104C16.815 7.18679 16.6708 7.01109 16.5856 6.80552C16.5005 6.59995 16.4782 6.37375 16.5216 6.15552C16.565 5.93729 16.6722 5.73684 16.8295 5.5795C16.9868 5.42217 17.1873 5.31502 17.4055 5.27162C17.6238 5.22821 17.85 5.25049 18.0555 5.33564C18.2611 5.42078 18.4368 5.56498 18.5604 5.74998C18.684 5.93499 18.75 6.1525 18.75 6.375C18.75 6.67337 18.6315 6.95952 18.4205 7.1705C18.2095 7.38147 17.9234 7.5 17.625 7.5ZM15 12C15 12.5933 14.8241 13.1734 14.4944 13.6667C14.1648 14.1601 13.6962 14.5446 13.1481 14.7716C12.5999 14.9987 11.9967 15.0581 11.4147 14.9424C10.8328 14.8266 10.2982 14.5409 9.87868 14.1213C9.45912 13.7018 9.1734 13.1672 9.05764 12.5853C8.94189 12.0033 9.0013 11.4001 9.22836 10.8519C9.45542 10.3038 9.83994 9.83524 10.3333 9.50559C10.8266 9.17595 11.4067 9 12 9C12.7956 9 13.5587 9.31607 14.1213 9.87868C14.6839 10.4413 15 11.2044 15 12Z"></path>
  </symbol>
  <symbol xmlns="http://www.w3.org/2000/svg" viewBox="0 0 24 24" id="x">
    <path d="M20.1564 20.6109C20.0918 20.7286 19.9968 20.8267 19.8814 20.8951C19.766 20.9636 19.6343 20.9998 19.5001 21H15.0001C14.8739 21 14.7497 20.9681 14.6391 20.9073C14.5285 20.8465 14.435 20.7587 14.3673 20.6522L10.5714 14.6869L5.05512 20.7544C4.92065 20.8988 4.73466 20.9845 4.53748 20.9927C4.34029 21.0009 4.14781 20.9311 4.00176 20.7984C3.8557 20.6657 3.76785 20.4807 3.75725 20.2836C3.74665 20.0866 3.81415 19.8933 3.94512 19.7456L9.73606 13.3706L3.86731 4.15313C3.79503 4.03973 3.75457 3.90898 3.75016 3.77458C3.74575 3.64018 3.77756 3.50707 3.84226 3.38918C3.90695 3.27129 4.00215 3.17296 4.11789 3.10449C4.23363 3.03603 4.36565 2.99993 4.50012 3H9.00012C9.12635 3.00004 9.25052 3.03194 9.36114 3.09274C9.47176 3.15353 9.56524 3.24127 9.63293 3.34781L13.4289 9.31312L18.9451 3.24562C19.0796 3.10117 19.2656 3.01555 19.4628 3.00731C19.6599 2.99907 19.8524 3.06888 19.9985 3.20161C20.1445 3.33435 20.2324 3.51929 20.243 3.71636C20.2536 3.91343 20.1861 4.10674 20.0551 4.25438L14.2642 10.6247L20.1329 19.8478C20.2048 19.9613 20.2449 20.0919 20.249 20.2262C20.2531 20.3604 20.2211 20.4933 20.1564 20.6109Z"></path>
  </symbol>
  <symbol xmlns="http://www.w3.org/2000/svg" viewBox="0 0 24 24" id="youtube">
    <path d="M21.9684 6.5175C21.8801 6.17189 21.7109 5.85224 21.4747 5.58491C21.2385 5.31758 20.9421 5.11024 20.61 4.98C17.3962 3.73875 12.2812 3.75 12 3.75C11.7188 3.75 6.60375 3.73875 3.39 4.98C3.0579 5.11024 2.76153 5.31758 2.52534 5.58491C2.28915 5.85224 2.1199 6.17189 2.03156 6.5175C1.78875 7.45313 1.5 9.16313 1.5 12C1.5 14.8369 1.78875 16.5469 2.03156 17.4825C2.11977 17.8283 2.28895 18.1481 2.52515 18.4156C2.76136 18.6831 3.0578 18.8906 3.39 19.0209C6.46875 20.2088 11.2875 20.25 11.9381 20.25H12.0619C12.7125 20.25 17.5341 20.2088 20.61 19.0209C20.9422 18.8906 21.2386 18.6831 21.4748 18.4156C21.711 18.1481 21.8802 17.8283 21.9684 17.4825C22.2113 16.545 22.5 14.8369 22.5 12C22.5 9.16313 22.2113 7.45313 21.9684 6.5175ZM15.0553 12.6113L11.3053 15.2363C11.1931 15.3148 11.0616 15.3612 10.9249 15.3703C10.7883 15.3794 10.6517 15.351 10.5301 15.288C10.4085 15.225 10.3064 15.1299 10.235 15.013C10.1636 14.8962 10.1256 14.762 10.125 14.625V9.375C10.125 9.2378 10.1627 9.10324 10.2339 8.98597C10.3051 8.86869 10.4071 8.77319 10.5289 8.70987C10.6506 8.64655 10.7873 8.61783 10.9242 8.62683C11.0611 8.63584 11.1929 8.68222 11.3053 8.76094L15.0553 11.3859C15.154 11.4551 15.2345 11.547 15.2901 11.6539C15.3457 11.7608 15.3747 11.8795 15.3747 12C15.3747 12.1205 15.3457 12.2392 15.2901 12.3461C15.2345 12.453 15.154 12.5449 15.0553 12.6141V12.6113Z"></path>
  </symbol>
  <symbol  xmlns="http://www.w3.org/2000/svg" viewBox="0 0 16 16" id="chevron-down">
    <path d="M13.3538 6.35378L8.35378 11.3538C8.30735 11.4003 8.2522 11.4372 8.1915 11.4623C8.13081 11.4875 8.06574 11.5004 8.00003 11.5004C7.93433 11.5004 7.86926 11.4875 7.80856 11.4623C7.74786 11.4372 7.69272 11.4003 7.64628 11.3538L2.64628 6.35378C2.55246 6.25996 2.49976 6.13272 2.49976 6.00003C2.49976 5.86735 2.55246 5.7401 2.64628 5.64628C2.7401 5.55246 2.86735 5.49976 3.00003 5.49976C3.13272 5.49976 3.25996 5.55246 3.35378 5.64628L8.00003 10.2932L12.6463 5.64628C12.6927 5.59983 12.7479 5.56298 12.8086 5.53784C12.8693 5.5127 12.9343 5.49976 13 5.49976C13.0657 5.49976 13.1308 5.5127 13.1915 5.53784C13.2522 5.56298 13.3073 5.59983 13.3538 5.64628C13.4002 5.69274 13.4371 5.74789 13.4622 5.80859C13.4874 5.86928 13.5003 5.93434 13.5003 6.00003C13.5003 6.06573 13.4874 6.13079 13.4622 6.19148C13.4371 6.25218 13.4002 6.30733 13.3538 6.35378Z"></path>
  </symbol>
  <symbol  xmlns="http://www.w3.org/2000/svg" viewBox="0 0 24 24" id="facebook">
    <path d="M21.75 12C21.7469 14.3829 20.8726 16.6825 19.2917 18.4656C17.7109 20.2486 15.5326 21.3921 13.1671 21.6806C13.1145 21.6866 13.0611 21.6813 13.0107 21.6651C12.9602 21.649 12.9137 21.6223 12.8743 21.5869C12.8348 21.5514 12.8034 21.508 12.782 21.4596C12.7605 21.4111 12.7496 21.3586 12.75 21.3056V14.25H15C15.1028 14.2502 15.2045 14.2293 15.2989 14.1885C15.3933 14.1478 15.4783 14.088 15.5487 14.013C15.619 13.938 15.6732 13.8494 15.7078 13.7526C15.7424 13.6558 15.7568 13.5529 15.75 13.4503C15.7334 13.2574 15.6444 13.078 15.5009 12.9481C15.3574 12.8181 15.1701 12.7474 14.9765 12.75H12.75V10.5C12.75 10.1022 12.908 9.72062 13.1893 9.43932C13.4706 9.15801 13.8521 8.99998 14.25 8.99998H15.75C15.8528 9.0002 15.9545 8.97929 16.0489 8.93853C16.1433 8.89777 16.2283 8.83804 16.2987 8.76304C16.369 8.68805 16.4232 8.59939 16.4578 8.50258C16.4924 8.40577 16.5068 8.30288 16.5 8.20029C16.4834 8.0071 16.3941 7.82739 16.2502 7.69742C16.1063 7.56745 15.9185 7.49689 15.7246 7.49998H14.25C13.4543 7.49998 12.6912 7.81605 12.1286 8.37866C11.566 8.94127 11.25 9.70433 11.25 10.5V12.75H8.99996C8.89714 12.7498 8.79538 12.7707 8.70099 12.8114C8.60659 12.8522 8.52159 12.9119 8.45126 12.9869C8.38092 13.0619 8.32676 13.1506 8.29213 13.2474C8.2575 13.3442 8.24315 13.4471 8.24996 13.5497C8.26655 13.7429 8.35579 13.9226 8.49968 14.0525C8.64357 14.1825 8.8314 14.2531 9.02527 14.25H11.25V21.3075C11.2503 21.3604 11.2394 21.4128 11.218 21.4612C11.1967 21.5096 11.1653 21.5529 11.126 21.5884C11.0866 21.6238 11.0403 21.6505 10.9899 21.6667C10.9395 21.6829 10.8863 21.6883 10.8337 21.6825C8.40498 21.3867 6.1758 20.1899 4.5874 18.3289C2.99901 16.4679 2.16716 14.0785 2.25652 11.6334C2.44402 6.57091 6.54464 2.45529 11.6109 2.25841C12.9225 2.20761 14.231 2.42187 15.4579 2.88838C16.6848 3.35489 17.8051 4.06407 18.7516 4.9735C19.6981 5.88293 20.4515 6.97393 20.9667 8.18123C21.4819 9.38854 21.7483 10.6873 21.75 12Z"></path>
  </symbol>
  <symbol  xmlns="http://www.w3.org/2000/svg" viewBox="0 0 111 115" id="loader">
    <circle opacity="0.8" cx="58.2488" cy="8.52431" r="8.52431" fill="#6E72EC"></circle>
    <circle opacity="0.7" cx="23.0883" cy="23.0894" r="8.52431" transform="rotate(-45 23.0883 23.0894)" fill="#6E72EC"></circle>
    <circle opacity="0.6" cx="8.52419" cy="58.2545" r="8.52431" transform="rotate(-90 8.52419 58.2545)" fill="#6E72EC"></circle>
    <circle opacity="0.5" cx="23.0896" cy="93.4115" r="7.43402" transform="rotate(-135 23.0896 93.4115)" fill="#6E72EC"></circle>
    <circle opacity="0.4" cx="58.2488" cy="107.973" r="6.25116" fill="#6E72EC"></circle>
    <circle opacity="0.3" cx="93.4094" cy="93.4102" r="3.81743" transform="rotate(-45 93.4094 93.4102)" fill="#6E72EC"></circle>
    <circle cx="107.973" cy="58.2493" r="2.55729" transform="rotate(-90 107.973 58.2493)" fill="#D9DAFF"></circle>
    <circle cx="93.4102" cy="23.0888" r="8.52431" transform="rotate(-135 93.4102 23.0888)" fill="#6E72EC"></circle>
  </symbol>
  <symbol xmlns="http://www.w3.org/2000/svg" viewBox="0 0 24 24" id="check">
    <path d="M21.5306 7.28068L9.53055 19.2807C9.4609 19.3504 9.37818 19.4057 9.28713 19.4435C9.19609 19.4812 9.09849 19.5006 8.99993 19.5006C8.90137 19.5006 8.80377 19.4812 8.71272 19.4435C8.62168 19.4057 8.53896 19.3504 8.4693 19.2807L3.2193 14.0307C3.07857 13.8899 2.99951 13.6991 2.99951 13.5001C2.99951 13.301 3.07857 13.1102 3.2193 12.9694C3.36003 12.8287 3.55091 12.7496 3.74993 12.7496C3.94895 12.7496 4.13982 12.8287 4.28055 12.9694L8.99993 17.6897L20.4693 6.21943C20.61 6.07869 20.8009 5.99963 20.9999 5.99963C21.199 5.99963 21.3898 6.07869 21.5306 6.21943C21.6713 6.36016 21.7503 6.55103 21.7503 6.75005C21.7503 6.94907 21.6713 7.13995 21.5306 7.28068Z"></path>
  </symbol>
  <symbol xmlns="http://www.w3.org/2000/svg" viewBox="0 0 24 24" id="chevron-up">
    <path d="M3.96944 14.4693L11.4694 6.96932C11.5391 6.89959 11.6218 6.84427 11.7129 6.80653C11.8039 6.76878 11.9015 6.74936 12.0001 6.74936C12.0986 6.74936 12.1962 6.76878 12.2873 6.80653C12.3783 6.84427 12.461 6.89959 12.5307 6.96932L20.0307 14.4693C20.1714 14.6101 20.2505 14.8009 20.2505 14.9999C20.2505 15.199 20.1714 15.3898 20.0307 15.5306C19.89 15.6713 19.6991 15.7504 19.5001 15.7504C19.301 15.7504 19.1102 15.6713 18.9694 15.5306L12.0001 8.56026L5.0307 15.5306C4.96101 15.6003 4.87829 15.6555 4.78724 15.6932C4.6962 15.731 4.59862 15.7504 4.50007 15.7504C4.40152 15.7504 4.30394 15.731 4.2129 15.6932C4.12185 15.6555 4.03913 15.6003 3.96944 15.5306C3.89976 15.4609 3.84449 15.3782 3.80678 15.2871C3.76906 15.1961 3.74965 15.0985 3.74965 14.9999C3.74965 14.9014 3.76906 14.8038 3.80678 14.7128C3.84449 14.6217 3.89976 14.539 3.96944 14.4693Z"></path>
  </symbol>
  <symbol xmlns="http://www.w3.org/2000/svg" viewBox="0 0 24 24" id="magnify">
    <path d="M21.5306 20.4693L16.8365 15.7762C18.1971 14.1428 18.8755 12.0478 18.7307 9.92691C18.5859 7.80604 17.629 5.82265 16.0591 4.38932C14.4892 2.95599 12.4271 2.18308 10.3019 2.23138C8.17663 2.27968 6.15181 3.14547 4.64864 4.64864C3.14547 6.15181 2.27968 8.17663 2.23138 10.3019C2.18308 12.4271 2.95599 14.4892 4.38932 16.0591C5.82265 17.629 7.80604 18.5859 9.92691 18.7307C12.0478 18.8755 14.1428 18.1971 15.7762 16.8365L20.4693 21.5306C20.539 21.6003 20.6218 21.6556 20.7128 21.6933C20.8038 21.731 20.9014 21.7504 21 21.7504C21.0985 21.7504 21.1961 21.731 21.2871 21.6933C21.3782 21.6556 21.4609 21.6003 21.5306 21.5306C21.6003 21.4609 21.6556 21.3782 21.6933 21.2871C21.731 21.1961 21.7504 21.0985 21.7504 21C21.7504 20.9014 21.731 20.8038 21.6933 20.7128C21.6556 20.6218 21.6003 20.539 21.5306 20.4693ZM3.74997 10.5C3.74997 9.16495 4.14585 7.8599 4.88755 6.74987C5.62925 5.63984 6.68346 4.77467 7.91686 4.26378C9.15026 3.75289 10.5075 3.61922 11.8168 3.87967C13.1262 4.14012 14.3289 4.78299 15.2729 5.727C16.2169 6.671 16.8598 7.87374 17.1203 9.18311C17.3807 10.4925 17.2471 11.8497 16.7362 13.0831C16.2253 14.3165 15.3601 15.3707 14.2501 16.1124C13.14 16.8541 11.835 17.25 10.5 17.25C8.71037 17.248 6.99463 16.5362 5.72919 15.2708C4.46375 14.0053 3.75196 12.2896 3.74997 10.5Z"></path>
  </symbol>
  <symbol xmlns="http://www.w3.org/2000/svg" viewBox="0 0 24 24" id="chevron-left">
    <path d="M14.4694 20.0307L6.96945 12.5307C6.89971 12.461 6.84439 12.3783 6.80665 12.2873C6.76891 12.1962 6.74948 12.0986 6.74948 12.0001C6.74948 11.9015 6.76891 11.8039 6.80665 11.7128C6.84439 11.6218 6.89971 11.5391 6.96945 11.4694L14.4694 3.96943C14.6102 3.8287 14.801 3.74963 15.0001 3.74963C15.1991 3.74963 15.39 3.8287 15.5307 3.96943C15.6714 4.11016 15.7505 4.30103 15.7505 4.50005C15.7505 4.69907 15.6714 4.88995 15.5307 5.03068L8.56038 12.0001L15.5307 18.9694C15.6004 19.0391 15.6557 19.1218 15.6934 19.2129C15.7311 19.3039 15.7505 19.4015 15.7505 19.5001C15.7505 19.5986 15.7311 19.6962 15.6934 19.7872C15.6557 19.8783 15.6004 19.961 15.5307 20.0307C15.461 20.1004 15.3783 20.1556 15.2872 20.1933C15.1962 20.2311 15.0986 20.2505 15.0001 20.2505C14.9015 20.2505 14.8039 20.2311 14.7129 20.1933C14.6219 20.1556 14.5391 20.1004 14.4694 20.0307Z"></path>
  </symbol>
</svg>